<svg width="60" height="20" viewBox="0 0 60 20" fill="none" xmlns="http://www.w3.org/2000/svg">
<g clip-path="url(#clip0_1_6)">
<path d="M28.4337 20C33.9788 20 38.4739 15.5228 38.4739 10C38.4739 4.47715 33.9788 0 28.4337 0C22.8887 0 18.3936 4.47715 18.3936 10C18.3936 15.5228 22.8887 20 28.4337 20Z" fill="#A3F2CB"/>
<path d="M49.9598 20C55.5049 20 60 15.5228 60 10C60 4.47715 55.5049 0 49.9598 0C44.4148 0 39.9197 4.47715 39.9197 10C39.9197 15.5228 44.4148 20 49.9598 20Z" fill="#ACBEFB"/>
<path fill-rule="evenodd" clip-rule="evenodd" d="M6.89437 20C12.4467 20 16.9478 15.5228 16.9478 10C16.9478 4.47715 12.4467 0 6.89437 0H0V20H6.89437Z" fill="#64E5A6"/>
</g>
<defs>
<clipPath id="clip0_1_6">
<rect width="60" height="20" fill="white"/>
</clipPath>
</defs>
</svg>
